<svg xmlns="http://www.w3.org/2000/svg" width="82.894" height="103.495" viewBox="0 0 82.894 103.495"><g transform="translate(-127.392 -23.326)"><path d="M305.779,389.394a12.024,12.024,0,0,1-.013-1.508c-.266.17-.555.349-.861.536-3.971,8.1-12.053,23.534-19.116,30.395a1.854,1.854,0,1,0,2.584,2.66c6.559-6.373,13.676-19.159,18.086-27.84a30.781,30.781,0,0,1-.562-3.027C305.845,390.194,305.8,389.788,305.779,389.394Z" transform="translate(-127.963 -295.563)" fill="#eacdd1"/><path d="M405.238,385.635a6.358,6.358,0,0,1-.99-.074,7.1,7.1,0,0,1-.837-.2,9.754,9.754,0,0,1-1.721-.706c-.057-.03-.116-.065-.174-.1a4.862,4.862,0,0,0-.079.619,15.889,15.889,0,0,0,.3,3.617,43.731,43.731,0,0,0,1.464,5.781c1.61-2.126,4.049-5.992,3.667-8.543a.731.731,0,0,1,.17-.58A10.394,10.394,0,0,1,405.238,385.635Z" transform="translate(-222.165 -292.863)" fill="#eacdd1"/><path d="M330.058,316.91a52.018,52.018,0,0,0,5.416,4.36,26.238,26.238,0,0,1-1.606-3.212A17.5,17.5,0,0,0,330.058,316.91Z" transform="translate(-164.309 -238.02)" fill="#eacdd1"/><path d="M437.044,386.646q-.6.175-1.171.309a.742.742,0,0,1,.188.135,5.214,5.214,0,0,0,2.771,1.556,8.2,8.2,0,0,1,3.234,1.566c.91.708,2.031,1.591,3.106,2.441-1.041-1.453-2.3-3.125-3.619-4.728A34.366,34.366,0,0,1,437.044,386.646Z" transform="translate(-250.098 -294.558)" fill="#eacdd1"/><path d="M331.552,370.672c4.532-2.338,9.639-5.1,11.658-6.491a22.312,22.312,0,0,1-3.7-3.453c-.043,0-.113,0-.208,0-1.528.654-2.4,2.192-3.372,3.935a26.657,26.657,0,0,1-1.425,2.362A42.577,42.577,0,0,1,331.552,370.672Z" transform="translate(-165.52 -273.545)" fill="#eacdd1"/><path d="M223.36,370.131l-1.656,2.728-.046.076c.009.253.017.517.025.78a116.9,116.9,0,0,1-.3,11.93,179.28,179.28,0,0,1-2.286,17.995,1.854,1.854,0,0,0,1.505,2.146,1.927,1.927,0,0,0,.322.028,1.855,1.855,0,0,0,1.824-1.534c3.2-18.222,2.966-30.13,2.241-36.832Z" transform="translate(-74.325 -278.992)" fill="#eacdd1"/><path d="M143.7,324.439a9.464,9.464,0,0,0-3.136,1.453,11.259,11.259,0,0,1-2.927,1.612,40.649,40.649,0,0,0,8.29.95,23.443,23.443,0,0,0,4.732-.462A25.376,25.376,0,0,1,143.7,324.439Z" transform="translate(-8.309 -244.124)" fill="#eacdd1"/><path d="M223.6,332.713a81.6,81.6,0,0,1,11.062-1.022,44.422,44.422,0,0,0-13.026-5.114c-.1.157-.213.316-.333.473-1.595,2.076-4.38,3.321-8.265,3.748q-.893.1-1.864.137c-.235.009-.47.017-.713.022-.2,0-.381.017-.584.017a.7.7,0,0,1-.152-.015c-.154-.033-.3-.072-.45-.105-.438-.1-.872-.194-1.291-.3-1.061.963-4.152,4.094-2.649,6.722a10.9,10.9,0,0,1,1.171,5.92l3.558-5.861.249-.41,1.38-2.271,1.553-2.56.387-.638a.7.7,0,0,1,1-.205,11.9,11.9,0,0,0,6.374,1.7A14.459,14.459,0,0,0,223.6,332.713Z" transform="translate(-62.865 -245.857)" fill="#eacdd1"/><path d="M261.835,74.724c1.625.976,3.12,1.895,4.391,2.684.46-.216.943-.442,1.457-.68l1.2-.558a27.32,27.32,0,0,0,4.377-2.5,16.939,16.939,0,0,0-3.936-5.613A55.766,55.766,0,0,1,261.835,74.724Z" transform="translate(-108.998 -36.261)" fill="#eacdd1"/><path d="M163.125,44.1c-.318-3.613-.312-8.132,1.331-10.115,1.064-1.283,2.678-1.445,4.634-.386,2.34,1.268,4.8,2.684,7.087,4.044a56.414,56.414,0,0,0,7.8-6.875,54.388,54.388,0,0,0-9.02-6.43,5.955,5.955,0,0,0-2.816-1.009c-1.238,0-1.951.979-3.1,2.708-1.339,2.013-3.006,4.519-6.652,5.752-3.918,1.327-4.624,5.293-4.484,8.557C159.657,41.568,161.408,42.818,163.125,44.1Z" transform="translate(-24.719)" fill="#eacdd1"/><path d="M204.429,86.75c-.229-.139-.459-.275-.693-.414l-.16-.094c-.178-.107-.356-.211-.536-.318-2.121-1.253-4.36-2.538-6.5-3.7-1.277-.693-2.161-.724-2.785.028-1.433,1.73-1.268,6.648-.846,10.4a90.78,90.78,0,0,1,8.248,7.079c1.082-6.419,2.287-7.979,7.362-10.5C207.3,88.482,205.906,87.632,204.429,86.75Z" transform="translate(-52.875 -47.324)" fill="#eacdd1"/><path d="M254.3,90.995l-.582.27-.8.373c-.275.129-.542.255-.8.377-5.539,2.645-6.477,3.789-7.562,10.879a49.153,49.153,0,0,1,4.157,4.9c.17.231.342.462.506.695.126.179.246.362.368.541.042.061.083.124.125.187.106.159.213.316.317.475.146.227.287.455.428.682a26.776,26.776,0,0,1,4.274,14.124,7.482,7.482,0,0,1,.063,2.654,14.421,14.421,0,0,0,3.848-3.552c3.856-5.071,5.957-13.777,6.074-25.173a117.75,117.75,0,0,0-.784-14.439,12.627,12.627,0,0,1-2.915,3.144c-.2.163-.419.325-.644.49s-.437.314-.67.471a30.647,30.647,0,0,1-4.2,2.342Z" transform="translate(-94.993 -49.183)" fill="#eacdd1"/><path d="M135.827,142.388c.238.185.49.366.742.547q.407.288.839.566a27.929,27.929,0,0,0,8.652,3.49c.342.083.677.168,1.031.242.189,0,.36-.013.545-.017.128,0,.254-.007.381-.011q.983-.031,1.875-.122c3.059-.316,5.329-1.161,6.761-2.536a5.515,5.515,0,0,0,.516-.555c.025-.03.057-.055.081-.087.1-.131.192-.261.277-.394.032-.052.059-.1.09-.154a5.511,5.511,0,0,0,.335-.656c.026-.063.048-.126.071-.189a6.114,6.114,0,0,0,.259-3.319.763.763,0,0,1-.024-.189,25.073,25.073,0,0,0-3.746-12.9c-.137-.231-.271-.466-.414-.695-.029-.046-.059-.092-.088-.139-.113-.177-.231-.353-.347-.527-.047-.072-.093-.144-.14-.214-.162-.242-.324-.484-.493-.724a45.118,45.118,0,0,0-3.736-4.611q-.321-.347-.65-.691c-.214-.224-.431-.449-.65-.671a82.032,82.032,0,0,0-7.686-6.8c-.279-.22-.558-.44-.84-.658s-.561-.432-.844-.649c-1.722-1.312-3.488-2.591-5.269-3.846l-.832-.584-.815-.567c-1.441-1-2.884-1.983-4.316-2.953,1.008,3.987.916,8.788.819,13.827C128.015,125.71,127.819,136.077,135.827,142.388Z" transform="translate(0 -63.6)" fill="#eacdd1"/><path d="M474.427,275.772a14.766,14.766,0,0,1-.6-3.349c-.012-.358-.006-.73.007-1.109a7.747,7.747,0,0,1-1.288,2.661c-3.172,4.127-12.53,8.088-12.927,8.254a.715.715,0,0,1-.287.059.746.746,0,0,1-.442-.146l-3.373-2.5a16.442,16.442,0,0,1-1.736.728c2.99,1.828,6.536,3.275,9.647,3.17l.187,0c1.6,0,1.774.858,1.774,1.227,0,1.687-4.823,4.791-9.738,6.89-.241.1-.482.2-.724.3s-.5.2-.748.294c-.082.033-.164.063-.248.094.153.044.3.093.459.135.429.122.863.233,1.3.333.4.094.8.179,1.193.251a15.29,15.29,0,0,0,2.691.272,8.023,8.023,0,0,0,1.635-.154c4.253-.887,8.817-6.955,11.543-10.581.453-.6.855-1.135,1.2-1.569C475.346,279.269,474.94,277.726,474.427,275.772Z" transform="translate(-264.618 -201.054)" fill="#eacdd1"/><path d="M354.159,186.109c1.173,0,1.77.974,3.21,3.327a11.359,11.359,0,0,0,2.906,3.249c.218-5.336,3.6-10.761,8.624-13.818a.738.738,0,0,1,.994.209c.3.425.562.843.815,1.257a61.957,61.957,0,0,1,5.962-3.632c-2.1-1.891-4.189-3.425-6.076-3.425a3.356,3.356,0,0,0-2.1.752,13.532,13.532,0,0,0-2.976,3.318c-1.267,1.811-2.463,3.521-5.934,3.8a10.807,10.807,0,0,0-7.721,4.724,3.865,3.865,0,0,0-.55,1.418q.409-.211.741-.388A4.809,4.809,0,0,1,354.159,186.109Z" transform="translate(-181.545 -121.571)" fill="#eacdd1"/><path d="M458.5,195.648c1.4-1.115,3.364-2.386,5.089-2.386a3.027,3.027,0,0,1,.989.179,2.71,2.71,0,0,1,.518.214c.06.035.119.08.179.12a6.158,6.158,0,0,1,.6.442,14.543,14.543,0,0,1,3.033,3.913c.128.231.246.447.354.654.127.24.24.466.336.662.234.481.372.8.393.854a.743.743,0,0,1,.006.558c-.54,1.371-3.365,8.229-6.042,8.7a5.449,5.449,0,0,1-.91.076,16.581,16.581,0,0,1-2.9,2.2l2.473,1.83c1.794-.791,9.35-4.255,11.941-7.626,1.675-2.177,1.742-5.563.827-9-.076-.287-.153-.573-.243-.858s-.184-.549-.282-.823a23.152,23.152,0,0,0-2.849-5.513,2.97,2.97,0,0,0-2.617-1.214,10.572,10.572,0,0,0-3.837.935c-.247.1-.493.207-.741.322s-.479.222-.718.34a57.91,57.91,0,0,0-6.385,3.841C458,194.612,458.257,195.136,458.5,195.648Z" transform="translate(-267.801 -134.025)" fill="#eacdd1"/><path d="M470.961,233.335a28.587,28.587,0,0,0,3.6-6.565c-.055-.122-.129-.279-.217-.462s-.206-.418-.335-.664c-.106-.205-.226-.423-.355-.652a12.648,12.648,0,0,0-2.709-3.5,4.6,4.6,0,0,0-.544-.388c-.023-.015-.052-.019-.077-.031a1.47,1.47,0,0,0-.675-.155c-.064,0-.13.009-.2.015-1.314.107-3.016,1.262-4.265,2.294.143.334.284.664.418.985.1.237.2.458.291.684.109.257.219.5.327.747s.226.5.34.73a10.843,10.843,0,0,0,1.075,1.806,6.6,6.6,0,0,0,.491.58,6.1,6.1,0,0,0,.578.534,5.966,5.966,0,0,0,1.236.788,2.141,2.141,0,0,1,1.261,2.558A3.747,3.747,0,0,1,470.961,233.335Z" transform="translate(-273.866 -160.191)" fill="#eacdd1"/><path d="M417.181,218.489c-.19-.432-.378-.869-.569-1.323-.07-.166-.147-.344-.219-.514-.1-.24-.2-.481-.312-.73-.1-.233-.216-.475-.325-.715-.259-.569-.544-1.153-.863-1.752-.115-.218-.231-.433-.356-.654s-.254-.423-.383-.636-.246-.427-.388-.645a16.121,16.121,0,0,0-7.316,12.237c-.013.335-.009.658.006.978l.012.009a19.5,19.5,0,0,1,3.012,2.327c.172.168.346.344.52.532l.049.052c.138.15.292.3.448.46l.019.022c.191.192.4.386.615.584s.419.375.643.566c.6.514,1.273,1.035,2,1.545a12.634,12.634,0,0,0,1.993-.675c.259-.111.514-.231.767-.357s.488-.25.727-.385a16.722,16.722,0,0,0,2.153-1.43c.266-.209.519-.42.754-.632.251-.225.489-.451.7-.676a4.8,4.8,0,0,0,1.26-1.985.68.68,0,0,0-.447-.891,7.357,7.357,0,0,1-2-1.388,7.45,7.45,0,0,1-.538-.556c-.163-.19-.308-.4-.453-.6a11.9,11.9,0,0,1-.811-1.323c-.124-.233-.246-.466-.361-.708S417.292,218.736,417.181,218.489Z" transform="translate(-226.237 -152.575)" fill="#eacdd1"/><path d="M359.4,273.227c.073.041.146.081.219.118a7.818,7.818,0,0,0,1.727.69c.147.037.293.072.435.1a4.581,4.581,0,0,0,.748.055,9.422,9.422,0,0,0,1.435-.135c.425-.066.867-.155,1.323-.27.4-.1.8-.213,1.21-.342.465-.146.935-.307,1.413-.486.254-.094.508-.194.763-.3s.494-.2.741-.3c4.153-1.771,8.221-4.351,9.149-5.482-.033,0-.07,0-.109,0l-.137,0c-3.866.129-8.216-1.828-11.638-4.131-.3-.205-.6-.412-.89-.623q-.479-.347-.926-.7c-.069-.054-.137-.109-.205-.164-.224-.177-.44-.357-.649-.534s-.438-.379-.642-.564c-.4-.366-.763-.724-1.086-1.068-.033-.037-.074-.076-.107-.111a13.393,13.393,0,0,0-1.918-1.71l-.276-.2q-.442-.316-.877-.608c-.079-.052-.16-.109-.239-.161-.2-.133-.4-.264-.6-.4a16.024,16.024,0,0,1-1.967-1.538,13.083,13.083,0,0,1-2.286-2.822c-.9-1.464-1.6-2.619-1.945-2.619a4.809,4.809,0,0,0-1.4.614c-.273.146-.594.312-.942.488-.155.079-.3.157-.478.24-.021.089-.034.176-.055.264-.065.283-.124.564-.174.843a19.383,19.383,0,0,0,1.14,10.435q.2.521.417,1.006c.165.377.335.736.507,1.079a25.486,25.486,0,0,0,1.368,2.4c.347.536.714,1.055,1.092,1.556.458.6.938,1.174,1.429,1.715a20.691,20.691,0,0,0,3.066,2.784c.134.1.266.192.4.283q.4.266.787.494C359.28,273.159,359.34,273.2,359.4,273.227Z" transform="translate(-179.454 -182.899)" fill="#eacdd1"/></g></svg>